<svg id="_Layer_" data-name="&lt;Layer&gt;" xmlns="http://www.w3.org/2000/svg" viewBox="0 0 176.56 72.01"><defs><style>.cls-1{fill:#ccc;}.cls-1,.cls-2,.cls-5{opacity:0.2;}.cls-2{fill:#f41111;}.cls-3,.cls-5{fill:#069;}.cls-4,.cls-6{fill:none;stroke-width:0.25px;}.cls-4{stroke:#300;}.cls-6{stroke:#069;stroke-miterlimit:10;}</style></defs><rect class="cls-1" x="14.25" y="13.11" width="54.03" height="54.24"/><rect class="cls-2" x="14.21" y="13.06" width="18.16" height="18.45"/><rect class="cls-2" x="50.13" y="49.49" width="18.16" height="17.85"/><rect class="cls-2" x="32.21" y="31.32" width="18.07" height="18.27"/><path class="cls-3" d="M24.33,1.75V8.08c0,.27.08.44.22.51a2.12,2.12,0,0,0,.8.13v.15H22.41V8.71a1.75,1.75,0,0,0,.82-.17.74.74,0,0,0,.19-.61V3.1a1,1,0,0,0-.06-.38.28.28,0,0,0-.27-.13,1.13,1.13,0,0,0-.35.08l-.41.16V2.68l1.92-1h.06A.08.08,0,0,1,24.33,1.75Z" transform="translate(-0.32 -1.64)"/><path class="cls-3" d="M39.39,8.75A34.74,34.74,0,0,0,42,5.84,3.1,3.1,0,0,0,42.66,4a1.55,1.55,0,0,0-.42-1.17,1.36,1.36,0,0,0-1-.4A1.44,1.44,0,0,0,40.09,3a3,3,0,0,0-.47.88l-.22,0a2.71,2.71,0,0,1,.88-1.66,2.21,2.21,0,0,1,1.34-.47A1.92,1.92,0,0,1,43,2.23a1.86,1.86,0,0,1,.55,1.36A2.76,2.76,0,0,1,43,5.24a37.44,37.44,0,0,1-2.56,2.81h2.39a1.51,1.51,0,0,0,.71-.12A1.59,1.59,0,0,0,44,7.35l.13.06-.58,1.46H39.39Z" transform="translate(-0.32 -1.64)"/><path class="cls-3" d="M58.9,8.26a1.6,1.6,0,0,0,.8.3,1.25,1.25,0,0,0,1.09-.49A1.85,1.85,0,0,0,61.14,7a1.71,1.71,0,0,0-.29-1,1.84,1.84,0,0,0-1.63-.71h-.28V5.18a4.42,4.42,0,0,0,1.31-.7,1.26,1.26,0,0,0,.48-1,1,1,0,0,0-.38-.86,1.33,1.33,0,0,0-.86-.3,1.42,1.42,0,0,0-1,.42,3.27,3.27,0,0,0-.51.71l-.17,0a2.38,2.38,0,0,1,.78-1.26,2,2,0,0,1,1.31-.48,1.67,1.67,0,0,1,1.24.44A1.39,1.39,0,0,1,61.19,4a3.07,3.07,0,0,1-.63.54,2.67,2.67,0,0,1,.8.5,1.82,1.82,0,0,1,.57,1.38,2.37,2.37,0,0,1-.78,1.75,3.07,3.07,0,0,1-2.21.75,1.54,1.54,0,0,1-.9-.19.49.49,0,0,1-.26-.4.56.56,0,0,1,.08-.27A.32.32,0,0,1,58.14,8,1.55,1.55,0,0,1,58.9,8.26Z" transform="translate(-0.32 -1.64)"/><path class="cls-3" d="M3.18,19.92v6.33c0,.27.08.44.22.51a1.93,1.93,0,0,0,.8.13V27H1.26v-.16a1.75,1.75,0,0,0,.82-.17c.13-.09.19-.3.19-.61V21.27a1,1,0,0,0-.06-.38.28.28,0,0,0-.27-.13,1.13,1.13,0,0,0-.35.08L1.18,21v-.15l1.92-1h.06S3.18,19.91,3.18,19.92Z" transform="translate(-0.32 -1.64)"/><path class="cls-3" d="M.32,44.71A34.74,34.74,0,0,0,2.91,41.8,3.1,3.1,0,0,0,3.59,40a1.55,1.55,0,0,0-.42-1.17,1.36,1.36,0,0,0-1-.4A1.44,1.44,0,0,0,1,38.94a3,3,0,0,0-.47.88l-.22,0a2.77,2.77,0,0,1,.88-1.67,2.2,2.2,0,0,1,1.34-.46A1.88,1.88,0,0,1,4,38.19a1.86,1.86,0,0,1,.55,1.36,2.76,2.76,0,0,1-.59,1.65A37.44,37.44,0,0,1,1.37,44H3.76a1.51,1.51,0,0,0,.71-.12,1.59,1.59,0,0,0,.45-.58l.14.06-.58,1.46H.32Z" transform="translate(-0.32 -1.64)"/><path class="cls-3" d="M1.59,62.58a1.56,1.56,0,0,0,.8.3,1.25,1.25,0,0,0,1.08-.5,1.77,1.77,0,0,0,.36-1.07,1.71,1.71,0,0,0-.29-1,1.83,1.83,0,0,0-1.64-.72H1.63v-.14a4.55,4.55,0,0,0,1.31-.69,1.26,1.26,0,0,0,.48-1A1.05,1.05,0,0,0,3,56.9a1.39,1.39,0,0,0-.86-.29,1.42,1.42,0,0,0-1,.42,3.34,3.34,0,0,0-.52.71l-.16,0a2.35,2.35,0,0,1,.78-1.26A1.94,1.94,0,0,1,2.57,56a1.67,1.67,0,0,1,1.23.44,1.38,1.38,0,0,1,.08,1.94,3.33,3.33,0,0,1-.63.53,2.89,2.89,0,0,1,.8.5,1.85,1.85,0,0,1,.57,1.39,2.38,2.38,0,0,1-.78,1.75,3.07,3.07,0,0,1-2.22.75,1.54,1.54,0,0,1-.9-.19.52.52,0,0,1-.26-.41.45.45,0,0,1,.09-.26.32.32,0,0,1,.28-.12A1.59,1.59,0,0,1,1.59,62.58Z" transform="translate(-0.32 -1.64)"/><path d="M42.25,19.92v6.33c0,.27.08.44.22.51a1.93,1.93,0,0,0,.8.13V27H40.33v-.16a1.75,1.75,0,0,0,.82-.17c.13-.09.19-.3.19-.61V21.27a1,1,0,0,0-.06-.38.28.28,0,0,0-.27-.13,1.13,1.13,0,0,0-.35.08l-.41.16v-.15l1.92-1h.06S42.25,19.91,42.25,19.92Z" transform="translate(-0.32 -1.64)"/><path d="M60.5,19.92v6.33q0,.41.21.51a2,2,0,0,0,.81.13V27h-3v-.16a1.72,1.72,0,0,0,.82-.17.73.73,0,0,0,.2-.61V21.27a.81.81,0,0,0-.07-.38.28.28,0,0,0-.27-.13,1.2,1.2,0,0,0-.35.08,3.7,3.7,0,0,0-.4.16v-.15l1.91-1h.06Z" transform="translate(-0.32 -1.64)"/><path d="M60.5,37.7V44q0,.41.21.51a2.18,2.18,0,0,0,.81.13v.15h-3v-.16a1.72,1.72,0,0,0,.82-.17.74.74,0,0,0,.2-.61V39.06a.81.81,0,0,0-.07-.38c0-.09-.13-.13-.27-.13a1.2,1.2,0,0,0-.35.08,3.7,3.7,0,0,0-.4.16v-.15l1.91-1h.06S60.49,37.7,60.5,37.7Z" transform="translate(-0.32 -1.64)"/><path d="M25.55,21.12a5,5,0,0,1,.53,2.34,5.7,5.7,0,0,1-.33,1.95,2.18,2.18,0,0,1-2.11,1.73A2,2,0,0,1,22,26.2a4.58,4.58,0,0,1-.71-2.7,5.12,5.12,0,0,1,.48-2.31,2.08,2.08,0,0,1,2-1.32A2,2,0,0,1,25.55,21.12ZM24.76,26A8,8,0,0,0,25,23.58a9.08,9.08,0,0,0-.17-2c-.21-.94-.62-1.41-1.21-1.41s-1,.48-1.21,1.45a9.3,9.3,0,0,0-.17,2,8.58,8.58,0,0,0,.17,1.89c.23.88.64,1.32,1.25,1.32A1.07,1.07,0,0,0,24.76,26Z" transform="translate(-0.32 -1.64)"/><path d="M24.33,37.7V44c0,.27.08.44.22.51a2.12,2.12,0,0,0,.8.13v.15H22.41v-.16a1.75,1.75,0,0,0,.82-.17.74.74,0,0,0,.19-.61V39.06a1,1,0,0,0-.06-.38c0-.09-.13-.13-.27-.13a1.13,1.13,0,0,0-.35.08l-.41.16v-.15l1.92-1h.06Z" transform="translate(-0.32 -1.64)"/><path d="M43.47,38.91A5,5,0,0,1,44,41.25a5.7,5.7,0,0,1-.33,2,2.17,2.17,0,0,1-2.11,1.72A2,2,0,0,1,39.87,44a4.58,4.58,0,0,1-.71-2.7A5.19,5.19,0,0,1,39.64,39a2.08,2.08,0,0,1,2-1.32A2,2,0,0,1,43.47,38.91Zm-.79,4.88A8,8,0,0,0,43,41.36a9.2,9.2,0,0,0-.17-2c-.21-.94-.62-1.4-1.21-1.4s-1,.48-1.21,1.44a9.36,9.36,0,0,0-.17,2,8.58,8.58,0,0,0,.17,1.89c.23.89.64,1.33,1.25,1.33A1.07,1.07,0,0,0,42.68,43.79Z" transform="translate(-0.32 -1.64)"/><path d="M24.33,56.06V62.4a.54.54,0,0,0,.22.51,2.35,2.35,0,0,0,.8.13v.14H22.41V63a1.75,1.75,0,0,0,.82-.17.74.74,0,0,0,.19-.61V57.42a.94.94,0,0,0-.06-.38c0-.09-.13-.13-.27-.13a1.13,1.13,0,0,0-.35.08l-.41.15V57l1.92-1h.06S24.33,56.05,24.33,56.06Z" transform="translate(-0.32 -1.64)"/><path d="M43.47,57.27A5,5,0,0,1,44,59.6a5.72,5.72,0,0,1-.33,2,2.17,2.17,0,0,1-2.11,1.72,2,2,0,0,1-1.69-.93,4.58,4.58,0,0,1-.71-2.7,5.19,5.19,0,0,1,.48-2.32,2.08,2.08,0,0,1,2-1.32A2,2,0,0,1,43.47,57.27Zm-.79,4.88A8,8,0,0,0,43,59.72a9.14,9.14,0,0,0-.17-2c-.21-.94-.62-1.41-1.21-1.41s-1,.49-1.21,1.45a9.36,9.36,0,0,0-.17,2,8.58,8.58,0,0,0,.17,1.89c.23.89.64,1.33,1.25,1.33A1.07,1.07,0,0,0,42.68,62.15Z" transform="translate(-0.32 -1.64)"/><path d="M61.71,57.27a5,5,0,0,1,.53,2.33,6,6,0,0,1-.32,2,2.18,2.18,0,0,1-2.11,1.72,2,2,0,0,1-1.69-.93,4.51,4.51,0,0,1-.71-2.7,5.33,5.33,0,0,1,.47-2.32,2.09,2.09,0,0,1,2-1.32A2,2,0,0,1,61.71,57.27Zm-.79,4.88a7.93,7.93,0,0,0,.29-2.43,9.8,9.8,0,0,0-.17-2c-.22-.94-.62-1.41-1.21-1.41s-1,.49-1.22,1.45a10,10,0,0,0-.17,2,7.93,7.93,0,0,0,.18,1.89c.22.89.64,1.33,1.25,1.33A1.06,1.06,0,0,0,60.92,62.15Z" transform="translate(-0.32 -1.64)"/><line class="cls-4" x1="10.31" y1="8.61" x2="10.31" y2="71.89"/><line class="cls-4" x1="14.28" y1="8.61" x2="10.31" y2="8.61"/><line class="cls-4" x1="14.26" y1="71.79" x2="10.29" y2="71.79"/><line class="cls-4" x1="72.37" y1="8.61" x2="72.37" y2="71.98"/><line class="cls-4" x1="68.43" y1="8.61" x2="72.37" y2="8.61"/><line class="cls-4" x1="68.44" y1="71.88" x2="72.39" y2="71.88"/><circle class="cls-4" cx="105.52" cy="10.25" r="7.55"/><circle class="cls-5" cx="105.52" cy="10.25" r="7.55"/><path d="M106.39,7.85v6.82c0,.29.08.47.23.55a2.16,2.16,0,0,0,.86.14v.16h-3.17v-.17a1.88,1.88,0,0,0,.89-.18.8.8,0,0,0,.21-.66V9.31a1.08,1.08,0,0,0-.07-.41.3.3,0,0,0-.29-.14,1.29,1.29,0,0,0-.38.08l-.44.17V8.86l2.06-1h.07Z" transform="translate(-0.32 -1.64)"/><path d="M166.67,15.39a35.6,35.6,0,0,0,2.79-3.13,3.28,3.28,0,0,0,.74-1.95,1.67,1.67,0,0,0-.45-1.26,1.49,1.49,0,0,0-1.07-.43,1.54,1.54,0,0,0-1.25.56,3.33,3.33,0,0,0-.5.94l-.24,0a2.89,2.89,0,0,1,.95-1.79,2.35,2.35,0,0,1,1.44-.5,2,2,0,0,1,1.53.6,2,2,0,0,1,.59,1.46,2.9,2.9,0,0,1-.64,1.77,37.13,37.13,0,0,1-2.75,3h2.57a1.54,1.54,0,0,0,.76-.13,1.54,1.54,0,0,0,.49-.62l.15.06-.62,1.57h-4.49Z" transform="translate(-0.32 -1.64)"/><circle class="cls-4" cx="168.89" cy="10.25" r="7.55"/><circle class="cls-5" cx="168.89" cy="10.25" r="7.55"/><circle class="cls-4" cx="137.21" cy="59.09" r="7.55"/><circle class="cls-5" cx="137.21" cy="59.09" r="7.55"/><path d="M136.37,63.71a1.7,1.7,0,0,0,.86.32,1.37,1.37,0,0,0,1.17-.53,2,2,0,0,0,.38-1.15,1.86,1.86,0,0,0-.31-1.06,2,2,0,0,0-1.76-.77h-.14l-.16,0v-.15a4.85,4.85,0,0,0,1.41-.75,1.35,1.35,0,0,0,.52-1.11,1.11,1.11,0,0,0-.41-.93,1.48,1.48,0,0,0-.93-.32,1.51,1.51,0,0,0-1.09.46,3.32,3.32,0,0,0-.55.76l-.18,0A2.55,2.55,0,0,1,136,57.1a2.16,2.16,0,0,1,1.41-.52,1.76,1.76,0,0,1,1.33.48,1.48,1.48,0,0,1,.08,2.08,3,3,0,0,1-.68.58,3.25,3.25,0,0,1,.87.54,2,2,0,0,1,.61,1.49,2.54,2.54,0,0,1-.84,1.88,3.26,3.26,0,0,1-2.39.82,1.68,1.68,0,0,1-1-.21.55.55,0,0,1-.27-.44.49.49,0,0,1,.09-.28.33.33,0,0,1,.3-.13A1.62,1.62,0,0,1,136.37,63.71Z" transform="translate(-0.32 -1.64)"/><line class="cls-6" x1="131.63" y1="54.15" x2="109.88" y2="20.04"/><path class="cls-3" d="M110.56,22.25l-.69,1.42-.06,0-.44-2.33-.81-2.21,1.66,1.67,1.92,1.39v0Z" transform="translate(-0.32 -1.64)"/><line class="cls-6" x1="112.81" y1="8.55" x2="158.61" y2="8.55"/><path class="cls-3" d="M158.25,10.19l-.82-1.35,0,0,2.2.88,2.3.5-2.3.51-2.2.88,0,0Z" transform="translate(-0.32 -1.64)"/><line class="cls-6" x1="161.36" y1="11.6" x2="115.87" y2="11.6"/><path class="cls-3" d="M116.86,13.24l.82,1.35-.05,0-2.2-.87-2.3-.51,2.3-.5,2.2-.88.05,0Z" transform="translate(-0.32 -1.64)"/><line class="cls-6" x1="110.64" y1="15.7" x2="132.28" y2="49.65"/><path class="cls-3" d="M132.24,50.73l.7-1.42.05,0,.45,2.33.81,2.21c-.56-.55-1.11-1.11-1.67-1.67l-1.92-1.38v0Z" transform="translate(-0.32 -1.64)"/><line class="cls-6" x1="165.3" y1="16.87" x2="142.62" y2="49.94"/><path class="cls-3" d="M143.32,51l1.58.09v.05l-2,1.32-1.72,1.62.88-2.19.53-2.31,0,0Z" transform="translate(-0.32 -1.64)"/></svg>