<svg id="_Layer_" data-name="&lt;Layer&gt;" xmlns="http://www.w3.org/2000/svg" viewBox="0 0 176.56 76.44"><defs><style>.cls-1{fill:#ccc;}.cls-1,.cls-2,.cls-5{opacity:0.2;}.cls-2{fill:#f2e10c;}.cls-3,.cls-5{fill:#069;}.cls-4,.cls-6{fill:none;stroke-width:0.25px;}.cls-4{stroke:#300;}.cls-6{stroke:#069;stroke-miterlimit:10;}</style></defs><rect class="cls-1" x="14.25" y="16.66" width="54.03" height="54.24"/><rect class="cls-2" x="14.21" y="16.61" width="53.98" height="18.45"/><rect class="cls-2" x="14.3" y="35.02" width="18" height="35.89"/><path class="cls-3" d="M24.33,3.65V10a.54.54,0,0,0,.22.51,2.35,2.35,0,0,0,.8.13v.14H22.41v-.15a1.75,1.75,0,0,0,.82-.17.74.74,0,0,0,.19-.61V5a.94.94,0,0,0-.06-.38c0-.09-.13-.13-.27-.13a1.07,1.07,0,0,0-.35.07l-.41.16V4.59l1.92-1h.06Z" transform="translate(-0.32)"/><path class="cls-3" d="M39.39,10.65A35.05,35.05,0,0,0,42,7.75a3.1,3.1,0,0,0,.68-1.81,1.55,1.55,0,0,0-.42-1.17,1.37,1.37,0,0,0-1-.41,1.47,1.47,0,0,0-1.16.52,3.19,3.19,0,0,0-.47.88l-.22,0a2.74,2.74,0,0,1,.88-1.67,2.2,2.2,0,0,1,1.34-.46A1.88,1.88,0,0,1,43,4.14a1.84,1.84,0,0,1,.55,1.36A2.71,2.71,0,0,1,43,7.14,35.05,35.05,0,0,1,40.44,10h2.39a1.51,1.51,0,0,0,.71-.12A1.59,1.59,0,0,0,44,9.26l.13.06-.58,1.45H39.39Z" transform="translate(-0.32)"/><path class="cls-3" d="M58.9,10.17a1.6,1.6,0,0,0,.8.3,1.26,1.26,0,0,0,1.09-.5,1.82,1.82,0,0,0,.35-1.07,1.71,1.71,0,0,0-.29-1,1.82,1.82,0,0,0-1.63-.72h-.28V7.08a4.42,4.42,0,0,0,1.31-.69,1.26,1.26,0,0,0,.48-1,1,1,0,0,0-.38-.87,1.37,1.37,0,0,0-.86-.29,1.42,1.42,0,0,0-1,.42,3,3,0,0,0-.51.71l-.17,0A2.41,2.41,0,0,1,58.57,4a2,2,0,0,1,1.31-.47A1.67,1.67,0,0,1,61.12,4a1.39,1.39,0,0,1,.07,1.94,2.79,2.79,0,0,1-.63.53,2.89,2.89,0,0,1,.8.5,1.85,1.85,0,0,1,.57,1.39,2.38,2.38,0,0,1-.78,1.75,3.07,3.07,0,0,1-2.21.75,1.54,1.54,0,0,1-.9-.19.51.51,0,0,1-.26-.41.5.5,0,0,1,.08-.26.32.32,0,0,1,.28-.12A1.55,1.55,0,0,1,58.9,10.17Z" transform="translate(-0.32)"/><path class="cls-3" d="M3.18,21.82v6.34c0,.27.08.44.22.51a2.12,2.12,0,0,0,.8.13V29H1.26v-.16a1.75,1.75,0,0,0,.82-.17A.74.74,0,0,0,2.27,28V23.18a.94.94,0,0,0-.06-.38c0-.09-.13-.13-.27-.13a1.13,1.13,0,0,0-.35.08l-.41.16v-.15l1.92-1h.06Z" transform="translate(-0.32)"/><path class="cls-3" d="M.32,46.61a36.81,36.81,0,0,0,2.59-2.9,3.1,3.1,0,0,0,.68-1.81,1.54,1.54,0,0,0-.42-1.17,1.37,1.37,0,0,0-1-.41A1.47,1.47,0,0,0,1,40.84a3.19,3.19,0,0,0-.47.88l-.22,0A2.74,2.74,0,0,1,1.21,40a2.2,2.2,0,0,1,1.34-.46A1.88,1.88,0,0,1,4,40.1a1.84,1.84,0,0,1,.55,1.36,2.73,2.73,0,0,1-.59,1.64,35.05,35.05,0,0,1-2.56,2.82H3.76a1.51,1.51,0,0,0,.71-.12,1.69,1.69,0,0,0,.45-.58l.14.06-.58,1.45H.32Z" transform="translate(-0.32)"/><path class="cls-3" d="M1.59,64.48a1.56,1.56,0,0,0,.8.3,1.25,1.25,0,0,0,1.08-.49,1.79,1.79,0,0,0,.36-1.07,1.69,1.69,0,0,0-.29-1,1.83,1.83,0,0,0-1.64-.72H1.77l-.14,0V61.4a4.55,4.55,0,0,0,1.31-.69,1.27,1.27,0,0,0,.48-1A1.05,1.05,0,0,0,3,58.81a1.34,1.34,0,0,0-.86-.3,1.39,1.39,0,0,0-1,.43,3.51,3.51,0,0,0-.52.7l-.16,0a2.41,2.41,0,0,1,.78-1.27,2,2,0,0,1,1.31-.47,1.63,1.63,0,0,1,1.23.44,1.37,1.37,0,0,1,.08,1.93,3.74,3.74,0,0,1-.63.54,2.67,2.67,0,0,1,.8.5,1.85,1.85,0,0,1,.57,1.39,2.34,2.34,0,0,1-.78,1.74,3,3,0,0,1-2.22.76A1.54,1.54,0,0,1,.72,65a.53.53,0,0,1-.26-.41.43.43,0,0,1,.09-.26.33.33,0,0,1,.28-.13A1.59,1.59,0,0,1,1.59,64.48Z" transform="translate(-0.32)"/><path d="M42.25,21.82v6.34c0,.27.08.44.22.51a2.12,2.12,0,0,0,.8.13V29H40.33v-.16a1.75,1.75,0,0,0,.82-.17.74.74,0,0,0,.19-.61V23.18a.94.94,0,0,0-.06-.38c0-.09-.13-.13-.27-.13a1.13,1.13,0,0,0-.35.08l-.41.16v-.15l1.92-1h.06Z" transform="translate(-0.32)"/><path d="M60.5,21.82v6.34q0,.4.21.51a2.18,2.18,0,0,0,.81.13V29h-3v-.16a1.72,1.72,0,0,0,.82-.17.74.74,0,0,0,.2-.61V23.18a.78.78,0,0,0-.07-.38c0-.09-.13-.13-.27-.13a1.2,1.2,0,0,0-.35.08,3.7,3.7,0,0,0-.4.16v-.15l1.91-1h.06S60.49,21.82,60.5,21.82Z" transform="translate(-0.32)"/><path d="M61.71,40.82a5,5,0,0,1,.53,2.33,6.06,6.06,0,0,1-.32,2,2.18,2.18,0,0,1-2.11,1.72,2,2,0,0,1-1.69-.93,4.63,4.63,0,0,1-.71-2.71,5.32,5.32,0,0,1,.47-2.31,2.09,2.09,0,0,1,2-1.32A2,2,0,0,1,61.71,40.82Zm-.79,4.88a7.93,7.93,0,0,0,.29-2.43,9.8,9.8,0,0,0-.17-2c-.22-.94-.62-1.41-1.21-1.41s-1,.48-1.22,1.45a10,10,0,0,0-.17,2,7.93,7.93,0,0,0,.18,1.89c.22.88.64,1.32,1.25,1.32A1.06,1.06,0,0,0,60.92,45.7Z" transform="translate(-0.32)"/><path d="M24.33,21.82v6.34c0,.27.08.44.22.51a2.12,2.12,0,0,0,.8.13V29H22.41v-.16a1.75,1.75,0,0,0,.82-.17.74.74,0,0,0,.19-.61V23.18a.94.94,0,0,0-.06-.38c0-.09-.13-.13-.27-.13a1.13,1.13,0,0,0-.35.08l-.41.16v-.15l1.92-1h.06Z" transform="translate(-0.32)"/><path d="M24.33,39.61v6.33a.55.55,0,0,0,.22.52,2.35,2.35,0,0,0,.8.13v.14H22.41v-.15a1.72,1.72,0,0,0,.82-.18c.13-.09.19-.29.19-.61V41a.91.91,0,0,0-.06-.38c0-.09-.13-.13-.27-.13a1.07,1.07,0,0,0-.35.07l-.41.16v-.14l1.92-1h.06Z" transform="translate(-0.32)"/><path d="M43.47,40.82A5,5,0,0,1,44,43.15a5.8,5.8,0,0,1-.33,2,2.17,2.17,0,0,1-2.11,1.72,2,2,0,0,1-1.69-.93,4.63,4.63,0,0,1-.71-2.71,5.18,5.18,0,0,1,.48-2.31,2.08,2.08,0,0,1,2-1.32A2,2,0,0,1,43.47,40.82Zm-.79,4.88A8,8,0,0,0,43,43.27a9.14,9.14,0,0,0-.17-2c-.21-.94-.62-1.41-1.21-1.41s-1,.48-1.21,1.45a9.3,9.3,0,0,0-.17,2,8.58,8.58,0,0,0,.17,1.89c.23.88.64,1.32,1.25,1.32A1.07,1.07,0,0,0,42.68,45.7Z" transform="translate(-0.32)"/><path d="M24.33,58V64.3c0,.27.08.44.22.51a1.93,1.93,0,0,0,.8.13v.15H22.41v-.16a1.63,1.63,0,0,0,.82-.17c.13-.09.19-.29.19-.61V59.33a.91.91,0,0,0-.06-.38c0-.09-.13-.13-.27-.13a1.07,1.07,0,0,0-.35.07l-.41.16v-.14l1.92-1h.06Z" transform="translate(-0.32)"/><path d="M43.47,59.18A5,5,0,0,1,44,61.51a5.7,5.7,0,0,1-.33,2,2.18,2.18,0,0,1-2.11,1.73,2,2,0,0,1-1.69-.93,4.63,4.63,0,0,1-.71-2.71,5.15,5.15,0,0,1,.48-2.31,2.08,2.08,0,0,1,2-1.32A2,2,0,0,1,43.47,59.18Zm-.79,4.87A7.87,7.87,0,0,0,43,61.63a9.08,9.08,0,0,0-.17-2c-.21-.94-.62-1.41-1.21-1.41s-1,.48-1.21,1.45a9.3,9.3,0,0,0-.17,2,8.58,8.58,0,0,0,.17,1.89c.23.88.64,1.32,1.25,1.32A1.07,1.07,0,0,0,42.68,64.05Z" transform="translate(-0.32)"/><path d="M61.71,59.18a5,5,0,0,1,.53,2.33,6,6,0,0,1-.32,2,2.19,2.19,0,0,1-2.11,1.73,2,2,0,0,1-1.69-.93,4.56,4.56,0,0,1-.71-2.71,5.29,5.29,0,0,1,.47-2.31,2.09,2.09,0,0,1,2-1.32A2,2,0,0,1,61.71,59.18Zm-.79,4.87a7.81,7.81,0,0,0,.29-2.42,9.73,9.73,0,0,0-.17-2c-.22-.94-.62-1.41-1.21-1.41s-1,.48-1.22,1.45a10,10,0,0,0-.17,2,7.93,7.93,0,0,0,.18,1.89c.22.88.64,1.32,1.25,1.32A1.06,1.06,0,0,0,60.92,64.05Z" transform="translate(-0.32)"/><line class="cls-4" x1="10.31" y1="12.16" x2="10.31" y2="75.44"/><line class="cls-4" x1="14.28" y1="12.16" x2="10.31" y2="12.16"/><line class="cls-4" x1="14.26" y1="75.34" x2="10.29" y2="75.34"/><line class="cls-4" x1="72.37" y1="12.16" x2="72.37" y2="75.53"/><line class="cls-4" x1="68.43" y1="12.16" x2="72.37" y2="12.16"/><line class="cls-4" x1="68.44" y1="75.43" x2="72.39" y2="75.43"/><circle class="cls-4" cx="105.52" cy="19.92" r="7.55"/><circle class="cls-5" cx="105.52" cy="19.92" r="7.55"/><path d="M106.39,15.88V22.7c0,.29.08.47.23.55a2.16,2.16,0,0,0,.86.14v.16h-3.17v-.17a1.88,1.88,0,0,0,.89-.18.8.8,0,0,0,.21-.66v-5.2a1.08,1.08,0,0,0-.07-.41.3.3,0,0,0-.29-.14,1.29,1.29,0,0,0-.38.08l-.44.17v-.15l2.06-1.05h.07Z" transform="translate(-0.32)"/><path d="M166.67,23.42a35.6,35.6,0,0,0,2.79-3.13,3.31,3.31,0,0,0,.74-1.95,1.67,1.67,0,0,0-.45-1.26,1.49,1.49,0,0,0-1.07-.43,1.54,1.54,0,0,0-1.25.56,3.33,3.33,0,0,0-.5.94l-.24,0a2.89,2.89,0,0,1,.95-1.79,2.35,2.35,0,0,1,1.44-.5,2,2,0,0,1,1.53.6,2,2,0,0,1,.59,1.46,2.9,2.9,0,0,1-.64,1.77,37.13,37.13,0,0,1-2.75,3h2.57a1.09,1.09,0,0,0,1.25-.75l.15.06-.62,1.57h-4.49Z" transform="translate(-0.32)"/><circle class="cls-4" cx="168.89" cy="19.92" r="7.55"/><circle class="cls-5" cx="168.89" cy="19.92" r="7.55"/><circle class="cls-4" cx="137.21" cy="68.76" r="7.55"/><circle class="cls-5" cx="137.21" cy="68.76" r="7.55"/><path d="M136.37,71.74a1.7,1.7,0,0,0,.86.32,1.37,1.37,0,0,0,1.17-.53,2,2,0,0,0,.38-1.15,1.86,1.86,0,0,0-.31-1.06,2,2,0,0,0-1.76-.77h-.14l-.16,0v-.15a4.85,4.85,0,0,0,1.41-.75,1.35,1.35,0,0,0,.52-1.11,1.11,1.11,0,0,0-.41-.93,1.48,1.48,0,0,0-.93-.32,1.55,1.55,0,0,0-1.09.45,3.67,3.67,0,0,0-.55.77l-.18,0a2.55,2.55,0,0,1,.84-1.36,2.1,2.1,0,0,1,1.41-.52,1.76,1.76,0,0,1,1.33.48,1.48,1.48,0,0,1,.08,2.08,3,3,0,0,1-.68.58,3,3,0,0,1,.87.54,2,2,0,0,1,.61,1.49,2.54,2.54,0,0,1-.84,1.88,3.26,3.26,0,0,1-2.39.82,1.68,1.68,0,0,1-1-.21.55.55,0,0,1-.27-.44.49.49,0,0,1,.09-.28.33.33,0,0,1,.3-.13A1.62,1.62,0,0,1,136.37,71.74Z" transform="translate(-0.32)"/><line class="cls-6" x1="134.02" y1="62.02" x2="112.35" y2="27.79"/><path class="cls-3" d="M113,28.36l-.7,1.41,0,0-.44-2.33L111,25.2l1.66,1.68,1.92,1.39v.05Z" transform="translate(-0.32)"/><line class="cls-6" x1="113.03" y1="18.52" x2="158.52" y2="18.52"/><path class="cls-3" d="M158.17,18.52l-.82-1.36,0,0,2.2.88,2.31.51-2.31.5-2.2.88,0,0Z" transform="translate(-0.32)"/><path class="cls-6" d="M100.3,14.35a8.36,8.36,0,0,1-2.47-6,8,8,0,1,1,16,0,8,8,0,0,1-.93,3.67" transform="translate(-0.32)"/><path class="cls-3" d="M113.22,11.45l1.58.09v.06l-2,1.32-1.73,1.61c.3-.73.6-1.46.89-2.19l.53-2.31,0,0Z" transform="translate(-0.32)"/><line class="cls-6" x1="161.31" y1="21.02" x2="115.82" y2="21.02"/><path class="cls-3" d="M116.81,21l.82,1.35,0,0-2.2-.87-2.3-.51,2.3-.51,2.2-.87,0,0Z" transform="translate(-0.32)"/><line class="cls-6" x1="108.67" y1="26.83" x2="130.33" y2="61.06"/><path class="cls-3" d="M130.29,60.49l.7-1.42,0,0,.44,2.32.81,2.22L130.63,62l-1.92-1.4v0Z" transform="translate(-0.32)"/></svg>